<svg width="1248" height="136" viewBox="0 0 1248 136" fill="none" xmlns="http://www.w3.org/2000/svg">
<path fill-rule="evenodd" clip-rule="evenodd" d="M1 135.555L125.61 10.5732L250.4 132.999L249.702 132.925L127.623 33.5233L107.848 67.7756H93.6975L66.6122 114.689L250.899 133.643L1247.08 131.899L1247.37 135.555H14.1282H1Z" fill="#B7B72F" stroke="#E1E146" stroke-width="0.755906" stroke-miterlimit="22.9256"/>
<path fill-rule="evenodd" clip-rule="evenodd" d="M366.353 94.868C359.461 98.477 351.618 100.52 343.299 100.52C315.817 100.52 293.539 78.2414 293.539 50.7597C293.539 23.278 315.817 1 343.299 1C352.997 1 362.048 3.77418 369.699 8.57304L364.721 15.5107C358.478 11.7081 351.144 9.51752 343.299 9.51752C320.521 9.51752 302.056 27.982 302.056 50.7597C302.056 73.5371 320.521 92.0016 343.299 92.0016C350.462 92.0016 357.199 90.1753 363.069 86.9631C364.662 91.1534 366.353 94.868 366.353 94.868Z" fill="#B7B72F" stroke="#E1E146" stroke-width="0.755906" stroke-miterlimit="22.9256"/>
<path d="M413.158 1.40723V100.281" stroke="#E1E146" stroke-width="10.6666" stroke-miterlimit="22.9256"/>
<path d="M427.283 50.6162H455.305" stroke="#E1E146" stroke-width="10.6666" stroke-miterlimit="22.9256"/>
<path fill-rule="evenodd" clip-rule="evenodd" d="M474.67 1.40723H486.972L458.051 51.4996L486.132 100.137H473.986L445.31 50.4682L474.67 1.40723Z" fill="#B7B72F" stroke="#E1E146" stroke-width="0.755906" stroke-miterlimit="22.9256"/>
<path fill-rule="evenodd" clip-rule="evenodd" d="M641.059 99.842C615.968 99.842 595.628 77.6709 595.628 50.3204C595.628 22.9702 617.103 1.57129 641.018 1.57129C641.023 5.61425 641.08 6.99642 641.069 10.0643C621.348 10.1758 603.405 27.6523 603.405 50.3204C603.405 72.9888 620.263 91.3653 641.059 91.3653C641.082 93.3084 640.996 97.5554 641.059 99.842Z" fill="#B7B72F" stroke="#E1E146" stroke-width="0.755906" stroke-miterlimit="22.9256"/>
<path fill-rule="evenodd" clip-rule="evenodd" d="M650.962 99.842C676.053 99.842 696.393 77.6709 696.393 50.3204C696.393 22.9702 674.917 1.57129 651.003 1.57129C650.998 5.61425 650.941 6.99642 650.951 10.0643C670.673 10.1758 688.616 27.6523 688.616 50.3204C688.616 72.9888 671.758 91.3653 650.962 91.3653C650.939 93.3084 651.025 97.5554 650.962 99.842Z" fill="#B7B72F" stroke="#E1E146" stroke-width="0.755906" stroke-miterlimit="22.9256"/>
<path d="M731.306 1.40723V100.281" stroke="#E1E146" stroke-width="10.6666" stroke-miterlimit="22.9256"/>
<path d="M822.434 1.40723V100.281" stroke="#E1E146" stroke-width="10.6666" stroke-miterlimit="22.9256"/>
<path d="M884.4 1.40723V100.281" stroke="#E1E146" stroke-width="10.6666" stroke-miterlimit="22.9256"/>
<path d="M920.966 1.40723V100.281" stroke="#E1E146" stroke-width="10.6666" stroke-miterlimit="22.9256"/>
<path d="M1122.24 1.40723V100.281" stroke="#E1E146" stroke-width="10.6666" stroke-miterlimit="22.9256"/>
<path d="M1068.02 24.9434V100.281" stroke="#E1E146" stroke-width="10.6666" stroke-miterlimit="22.9256"/>
<path d="M1122.24 6.7998H1062.63" stroke="#E1E146" stroke-width="10.6666" stroke-miterlimit="22.9256"/>
<path fill-rule="evenodd" clip-rule="evenodd" d="M784.7 98.7564H794.04L745.151 14.0059V30.1826L784.7 98.7564Z" fill="#B7B72F" stroke="#E1E146" stroke-width="0.755906" stroke-miterlimit="22.9256"/>
<path fill-rule="evenodd" clip-rule="evenodd" d="M828.925 99.969L870.179 28.3953V15.1484L827.388 89.265L827.416 99.9187L828.925 99.969Z" fill="#B7B72F" stroke="#E1E146" stroke-width="0.755906" stroke-miterlimit="22.9256"/>
<path fill-rule="evenodd" clip-rule="evenodd" d="M926.283 2.7239L976.491 88.7478L1028.75 1.80094L1038.54 1.51367L1027.38 20.8906L980.491 99.8309H971.645L926.075 20.9026L926.283 2.7239Z" fill="#B7B72F" stroke="#E1E146" stroke-width="0.755906" stroke-miterlimit="22.9256"/>
<path fill-rule="evenodd" clip-rule="evenodd" d="M1035.39 28.129L1028.12 40.7099V99.6861H1036.98V24.9395L1035.39 28.129Z" fill="#B7B72F" stroke="#E1E146" stroke-width="0.755906" stroke-miterlimit="22.9256"/>
</svg>
